<?xml version="1.0" encoding="UTF-8" standalone="no"?>
<svg
   viewBox="0 0 320.00404 320.00404"
   fill="none"
   version="1.1"
   id="svg32"
   sodipodi:docname="animus-coin-32x32.svg"
   width="32"
   height="32"
   inkscape:version="1.2.1 (ef4d3fba62, 2022-07-19, custom)"
   xmlns:inkscape="http://www.inkscape.org/namespaces/inkscape"
   xmlns:sodipodi="http://sodipodi.sourceforge.net/DTD/sodipodi-0.dtd"
   xmlns:xlink="http://www.w3.org/1999/xlink"
   xmlns="http://www.w3.org/2000/svg"
   xmlns:svg="http://www.w3.org/2000/svg">
  <sodipodi:namedview
     id="namedview34"
     pagecolor="#ffffff"
     bordercolor="#000000"
     borderopacity="0.25"
     inkscape:showpageshadow="2"
     inkscape:pageopacity="0.0"
     inkscape:pagecheckerboard="0"
     inkscape:deskcolor="#d1d1d1"
     showgrid="false"
     inkscape:zoom="37.22187"
     inkscape:cx="16.562843"
     inkscape:cy="15.058351"
     inkscape:window-width="2560"
     inkscape:window-height="1376"
     inkscape:window-x="0"
     inkscape:window-y="27"
     inkscape:window-maximized="1"
     inkscape:current-layer="layer1"
     inkscape:document-units="mm" />
  <defs
     id="defs30">
    <linearGradient
       id="paint0_linear_4367_34258"
       x1="748"
       y1="-1.18138e-06"
       x2="403"
       y2="1024"
       gradientUnits="userSpaceOnUse">
      <stop
         stopColor="white"
         id="stop20" />
      <stop
         offset="1"
         stop-color="#FAF2F9"
         id="stop22" />
    </linearGradient>
    <linearGradient
       id="paint1_linear_4367_34258"
       x1="877.841"
       y1="250.55701"
       x2="280.733"
       y2="896.78302"
       gradientUnits="userSpaceOnUse"
       gradientTransform="translate(2.309052e-5,4.4366036e-5)">
      <stop
         stop-color="#47E5BC"
         id="stop25" />
      <stop
         offset="1"
         stop-color="#5C95FF"
         id="stop27" />
    </linearGradient>
    <linearGradient
       inkscape:collect="always"
       xlink:href="#paint1_linear_4367_34258"
       id="linearGradient1213"
       gradientUnits="userSpaceOnUse"
       gradientTransform="matrix(-0.55698824,-0.82861435,-0.81015167,0.56297123,1456.6625,443.39736)"
       x1="877.841"
       y1="250.55701"
       x2="280.733"
       y2="896.78302" />
    <linearGradient
       inkscape:collect="always"
       xlink:href="#paint1_linear_4367_34258"
       id="linearGradient4551"
       gradientUnits="userSpaceOnUse"
       gradientTransform="rotate(114.07923,420.71482,562.67555)"
       x1="877.841"
       y1="250.55701"
       x2="280.733"
       y2="896.78302" />
    <linearGradient
       inkscape:collect="always"
       xlink:href="#paint1_linear_4367_34258"
       id="linearGradient12193"
       gradientUnits="userSpaceOnUse"
       gradientTransform="matrix(0.54759934,0.83484885,0.81645488,-0.55379036,-414.97443,594.25409)"
       x1="877.841"
       y1="250.55701"
       x2="280.733"
       y2="896.78302" />
  </defs>
  <g
     inkscape:groupmode="layer"
     id="layer1"
     inkscape:label="bg"
     style="display:inline"
     transform="translate(-631.24951,-1571.325)">
    <ellipse
       style="display:inline;fill:#1a1a1a;stroke-width:11.0001;paint-order:markers fill stroke"
       id="path397"
       cx="1312.0037"
       cy="2339.6003"
       rx="2262.3486"
       ry="2241.3804"
       transform="matrix(0.07057949,0,0,0.0713009,698.69287,1564.6022)" />
  </g>
  <g
     inkscape:groupmode="layer"
     id="layer2"
     inkscape:label="front"
     transform="translate(-631.24951,-1571.325)">
    <g
       id="g449"
       transform="matrix(0.07057949,0,0,0.07130093,698.69287,1564.6022)">
      <g
         id="g331"
         transform="matrix(7.6548497,0,0,5.8702127,-2685.7329,-732.41295)"
         inkscape:label="g331"
         style="display:inline">
        <path
           fill-rule="evenodd"
           clip-rule="evenodd"
           d="m 691.62044,593.24086 0.007,0.0235 0.007,0.0235 c 9.31314,25.72862 13.09419,52.84379 11.12836,78.21332 l -0.002,0.0251 -10e-4,0.0255 c -1.71495,22.82773 -8.13136,45.61472 -18.48587,65.74584 -8.60597,16.73063 -19.58333,31.63041 -32.60848,44.31604 l -0.047,0.0458 -0.047,0.0458 c -10.15807,10.01496 -21.15508,18.53237 -32.60621,25.3134 l -0.11191,0.0659 -0.11181,0.0682 c -1.40079,0.85262 -2.81532,1.67725 -4.24617,2.47712 -0.0322,-1.42298 -0.0696,-2.87123 -0.11064,-4.34309 l -0.006,-0.19089 -0.009,-0.19119 c -0.44141,-9.6005 -1.23629,-23.21886 -3.45029,-38.0048 l -0.0148,-0.0966 -0.0155,-0.0957 c -2.54696,-16.02128 -5.97168,-30.14454 -10.61112,-42.79965 -5.15341,-14.24519 -11.99097,-27.50363 -20.46482,-39.38484 l -0.016,-0.0234 -0.0171,-0.0232 c -7.43972,-10.37452 -16.24174,-20.0606 -27.28569,-30.31811 l -0.0109,-0.008 -0.009,-0.009 c -10.16829,-9.42041 -20.8826,-18.37395 -32.69221,-27.33725 -10.67839,-8.13682 -23.24193,-17.04052 -40.54084,-28.79645 l -0.65447,-0.44479 -0.7741,-0.44671 c -0.87356,-0.52814 -1.74219,-1.11373 -3.48478,-2.28789 -1.83715,-1.24928 -3.82187,-2.59733 -6.53528,-4.33676 l -0.0495,-0.0319 -3.32917,-2.15814 -0.0261,-0.018 -1.41184,-0.93875 c -0.89886,-0.59887 -2.11679,-1.41031 -3.42934,-2.28939 -2.72239,-1.8223 -5.55021,-3.73226 -6.9306,-4.7095 l -0.23353,-0.16601 -0.23792,-0.15883 c -9.88927,-6.61678 -20.54362,-15.03532 -32.35511,-25.72238 -21.84678,-20.06443 -39.62748,-43.22759 -51.6058,-66.81089 l -0.0216,-0.0411 -0.0219,-0.0416 c -12.46755,-24.28551 -19.7939,-51.88644 -20.72075,-77.27813 l -0.003,-0.0759 -0.003,-0.0768 c -1.00491,-23.00374 3.0015,-46.39783 11.52498,-67.45129 l 0.008,-0.0219 0.008,-0.0212 c 7.00298,-17.40099 16.648,-33.21162 28.64251,-47.01502 9.56869,-10.98047 19.93953,-20.28045 30.77592,-27.74474 l 0.0385,-0.0279 0.0392,-0.0264 c 2.01698,-1.40319 4.05014,-2.74433 6.08619,-4.01852 0.28992,2.12085 0.60425,4.31939 0.94806,6.59905 l 0.0109,0.0782 0.0133,0.0781 c 1.66844,10.55084 3.9791,23.89257 7.83454,37.66722 4.19759,15.16317 9.35522,29.03884 15.49911,41.14608 6.68332,13.45897 15.03144,25.58959 24.90143,36.06727 8.34922,8.96896 17.56412,16.98847 29.4237,25.89633 l 0.0235,0.0184 0.0234,0.0183 c 10.04976,7.50431 21.24382,15.05339 34.11212,23.03741 l 0.0519,0.0338 c 2.61701,1.84975 5.28748,3.35199 6.78098,4.19137 0.14243,0.0806 0.27489,0.15453 0.39554,0.22273 1.25344,0.71236 2.05724,1.17349 2.73457,1.58677 3.24152,2.23173 6.73663,4.19016 9.19479,5.56693 l 9.1e-4,3.9e-4 0.0647,0.0369 0.0684,0.0382 2.52207,1.42501 0.15964,0.0865 c 0.92008,0.49996 2.07525,1.19694 3.91862,2.39309 l 0.21576,0.13987 8.72353,5.37147 0.2628,0.15227 c 2.7103,1.56505 9.10829,5.72869 15.98337,10.53058 l 0.0235,0.0167 0.0239,0.0156 c 23.37291,16.23267 43.88707,34.84286 60.9805,55.20812 l 0.0106,0.0127 0.01,0.0136 c 18.73343,22.24932 33.27415,47.20666 42.16417,71.94332 z"
           fill="url(#paint1_linear_4367_34258)"
           id="path18"
           style="display:inline;fill:url(#linearGradient4551)"
           sodipodi:nodetypes="ccccccccccscccccscccccccccccscccccccccccccsccccccccccccccccccccccccsccsccccsccccccccccc" />
        <path
           d="m 505.25327,383.09618 -0.008,-0.009 -0.008,-0.009 c -12.84514,-12.81133 -23.23034,-27.51313 -30.1302,-42.27969 l -0.005,-0.009 c -7.05678,-15.08664 -11.07976,-32.06628 -11.41002,-47.40702 l -6e-4,-0.0441 c -0.33039,-14.04474 2.15366,-28.34088 7.13459,-41.16633 4.20286,-10.80898 9.89909,-20.5368 16.89811,-28.94891 l 0.0551,-0.0664 0.0545,-0.0659 c 3.39079,-4.1433 7.09154,-8.03759 10.95346,-11.52596 0.96504,5.56451 2.04609,10.80286 3.30143,15.84962 l 0.0237,0.0932 0.0237,0.0932 c 2.71279,10.50735 5.95063,19.99583 9.97358,28.49504 4.50069,9.60777 10.10306,18.44271 16.75508,26.23095 l 0.0178,0.0191 0.0177,0.019 c 5.82482,6.78757 12.46643,12.9018 20.45252,19.10653 7.29501,5.68937 14.92636,11.01976 23.29546,16.28245 6.4099,4.05787 13.33465,8.12142 19.60394,11.69955 l -0.0876,0.1703 13.86126,7.48318 c 0.57266,0.31444 1.18404,0.64571 1.85603,1.00175 l 3.51613,1.89777 c 2.3388,1.262 6.06761,3.27458 7.72625,4.24089 l 0.22652,0.13193 0.22965,0.12617 c 6.14256,3.37994 13.18702,8.00344 21.23692,14.09088 14.69772,11.32331 26.94371,24.7211 35.61581,38.58069 l 0.0269,0.0434 0.0266,0.0446 c 8.97013,14.18622 15.02983,30.76195 17.09912,46.2108 l 0.0101,0.0741 0.0101,0.0741 c 2.47245,17.54283 -0.20957,32.35947 -2.86984,41.57503 l -0.009,0.0297 -0.009,0.03 c -3.13172,10.96668 -7.94413,21.12703 -14.26915,30.21471 -3.59537,5.12792 -7.50616,9.79543 -11.63024,13.93524 -1.35809,-4.8708 -3.25981,-11.14963 -5.74102,-17.65059 -3.78601,-9.97678 -8.17134,-19.17602 -13.16774,-27.18721 -5.51421,-8.96544 -12.06364,-16.9247 -19.6354,-23.68358 -7.88156,-7.09066 -15.67762,-12.20815 -21.59209,-15.91979 l -0.0676,-0.0416 -0.0683,-0.041 c -7.1679,-4.42343 -14.96387,-8.73623 -23.6521,-13.11217 -1.91693,-1.10654 -3.85602,-2.002 -4.88496,-2.47709 v 0 l -0.21724,-0.10094 -1.78503,-0.83957 c -2.44507,-1.35467 -4.94539,-2.48365 -6.70865,-3.27159 l -0.0387,-0.017 -1.4448,-0.65174 -0.009,-0.005 c -0.66106,-0.29923 -1.38482,-0.65088 -2.70523,-1.33682 l -0.13525,-0.07 -6.17845,-3.09676 -0.25962,-0.12109 c -1.55305,-0.72606 -5.99793,-3.109 -10.18881,-5.52261 l -0.0281,-0.0173 -0.0287,-0.0167 C 530.8846,405.42401 517.06612,394.90477 505.2498,383.0939 Z m 115.47469,-62.43591 v 0 c -0.003,0.003 -0.003,0.003 0,0 z"
           style="clip-rule:evenodd;display:inline;fill:url(#linearGradient1213);fill-rule:evenodd;stroke-width:0.992407"
           id="path1182" />
        <path
           d="m 535.69348,665.29095 0.008,0.009 0.008,0.009 c 12.6997,12.95552 22.91829,27.7736 29.65103,42.61712 l 0.005,0.009 c 6.88603,15.16533 10.71708,32.18931 10.87415,47.53279 l 6.1e-4,0.0441 c 0.17182,14.04757 -2.47344,28.31476 -7.59883,41.08317 -4.3246,10.76084 -10.13027,20.42375 -17.22381,28.75633 l -0.0558,0.0657 -0.0553,0.0652 c -3.43734,4.10476 -7.1818,7.95702 -11.08285,11.40157 -0.90217,-5.57504 -1.92403,-10.82526 -3.12232,-15.88587 l -0.0227,-0.0934 -0.0227,-0.0934 c -2.59401,-10.53732 -5.72453,-20.06173 -9.65129,-28.60582 -4.39195,-9.65796 -9.89423,-18.55558 -16.45792,-26.4184 l -0.0176,-0.0193 -0.0175,-0.0192 c -5.74783,-6.85289 -12.31999,-13.04169 -20.23554,-19.33618 -7.23033,-5.77135 -14.80101,-11.18754 -23.11017,-16.54436 -6.36369,-4.12998 -13.24213,-8.27143 -19.47063,-11.9201 l 0.0895,-0.1693 -13.7759,-7.63917 c -0.56907,-0.32089 -1.17668,-0.65904 -1.84461,-1.02264 l -3.49449,-1.93734 c -2.3244,-1.28832 -6.03024,-3.34287 -7.67788,-4.32783 l -0.22501,-0.13449 -0.22821,-0.12874 c -6.10402,-3.44907 -13.09585,-8.15178 -21.07651,-14.32971 -14.56897,-11.48849 -26.66295,-25.02366 -35.17804,-38.98027 l -0.0264,-0.0437 -0.026,-0.0448 c -8.80942,-14.28656 -14.68163,-30.92964 -16.57641,-46.40087 l -0.009,-0.0742 -0.009,-0.0742 c -2.27428,-17.56962 0.57482,-32.35505 3.33895,-41.53998 l 0.009,-0.0296 0.009,-0.0299 c 3.25532,-10.93064 8.1821,-21.03601 14.6093,-30.05172 3.65303,-5.087 7.61627,-9.71007 11.78681,-13.80307 1.30302,4.88582 3.13374,11.18571 5.54141,17.71427 3.67314,10.01887 7.95436,19.26703 12.86001,27.33412 5.41266,9.02711 11.87182,17.05979 19.36681,23.90371 7.80102,7.17918 15.53881,12.38434 21.41101,16.16252 l 0.0671,0.0424 0.0679,0.0418 c 7.11751,4.50405 14.8643,8.90458 23.50258,13.37832 1.90433,1.12811 3.83318,2.04539 4.85669,2.53208 v 0 l 0.21608,0.10335 1.77545,0.85967 c 2.42962,1.38217 4.91703,2.5393 6.67128,3.3471 l 0.0385,0.0175 1.43736,0.66801 0.009,0.005 c 0.65765,0.30667 1.3774,0.66646 2.68997,1.36726 l 0.13446,0.0716 6.14309,3.1663 0.25824,0.12401 c 1.54476,0.74355 5.96245,3.17651 10.12582,5.63728 l 0.0278,0.0176 0.0285,0.0169 c 15.29692,8.97784 28.99578,19.6524 40.67803,31.5959 z M 419.52136,726.4194 v 0 c 0.003,-0.003 0.003,-0.003 0,0 z"
           style="clip-rule:evenodd;display:inline;fill:url(#linearGradient12193);fill-rule:evenodd;stroke-width:0.992407"
           id="path1182-7" />
      </g>
    </g>
  </g>
</svg>
